# xmcd CD database file
#
# Track frame offsets:
#	150
#	27300
#	51660
#	88425
#	112042
#	152775
#	189510
#	222105
#
# Disc length: 4096 seconds
#
# Revision: 0
# Processed by: cddbd v1.5.2PL0 Copyright (c) Steve Scherf et al.
# Submitted via: CDex 1.51
#
DISCID=750ffe08
DTITLE=The Bud Shank Big Band - Taking The Long Way Home
DYEAR=2006
DGENRE=Jazz
TTITLE0=Rosebud
TTITLE1=Waltz For Debby
TTITLE2=Greasiness Is Happenning
TTITLE3=Night And Day
TTITLE4=The Night Has A Thousand Eyes
TTITLE5=The Starduster
TTITLE6=Limes Away
TTITLE7=Taking The Long Way Home
EXTD=YEAR: 2006
EXTT0=
EXTT1=
EXTT2=
EXTT3=
EXTT4=
EXTT5=
EXTT6=
EXTT7=
PLAYORDER=
